<?xml version="1.0" standalone="no"?>
<!DOCTYPE svg PUBLIC "-//W3C//DTD SVG 20010904//EN"
 "http://www.w3.org/TR/2001/REC-SVG-20010904/DTD/svg10.dtd">
<svg version="1.0" xmlns="http://www.w3.org/2000/svg"
 width="600.000000pt" height="800.000000pt" viewBox="0 0 600.000000 800.000000"
 preserveAspectRatio="xMidYMid meet">
<g transform="translate(0.000000,800.000000) scale(0.100000,-0.100000)"
fill="#000000" stroke="none">
<path d="M3045 7279 c-27 -17 -64 -46 -82 -64 -17 -18 -33 -31 -36 -29 -3 3
-8 -8 -12 -23 -3 -15 -12 -35 -19 -43 -7 -8 -18 -35 -25 -60 -7 -25 -17 -52
-21 -61 -13 -25 -31 -134 -40 -239 -8 -95 -13 -129 -29 -185 -15 -50 -31 -184
-35 -287 -3 -53 -7 -101 -10 -106 -3 -5 -10 -54 -16 -108 -5 -54 -17 -128 -25
-164 -10 -40 -18 -144 -22 -270 -5 -190 -12 -240 -31 -240 -14 0 -31 64 -47
175 -8 61 -20 146 -27 190 -6 44 -22 121 -35 170 -62 233 -81 304 -93 360 -7
33 -24 103 -38 155 -13 52 -25 104 -27 115 -2 11 -4 22 -6 25 -6 13 -18 107
-24 185 -7 97 -28 178 -69 260 -34 69 -103 155 -125 155 -6 0 -11 3 -11 8 0
15 -56 32 -109 32 -40 0 -63 -6 -81 -20 -14 -11 -30 -20 -36 -20 -7 0 -15 -7
-18 -16 -4 -10 -2 -13 7 -8 6 4 1 -4 -13 -18 -14 -15 -37 -48 -50 -75 -36 -71
-40 -242 -10 -408 12 -66 24 -172 25 -235 3 -115 6 -148 18 -185 3 -11 9 -87
12 -170 3 -82 10 -163 14 -180 5 -16 12 -68 15 -115 6 -95 32 -262 47 -300 5
-14 11 -42 14 -62 3 -21 9 -57 15 -80 12 -55 12 -172 0 -223 -6 -22 -17 -76
-25 -120 -21 -117 -23 -123 -37 -160 -6 -19 -16 -35 -21 -35 -4 0 -6 -4 -3 -8
3 -5 -6 -16 -20 -26 -13 -11 -24 -25 -24 -32 0 -8 -5 -14 -10 -14 -6 0 -9 -6
-8 -12 2 -7 -3 -12 -9 -10 -7 1 -13 -3 -13 -8 0 -6 -25 -35 -55 -65 -30 -29
-55 -56 -55 -60 0 -12 -44 -44 -60 -44 -41 0 -119 82 -169 179 -41 79 -92 164
-103 171 -5 3 -9 10 -9 15 2 13 -89 154 -99 154 -4 0 -20 26 -35 58 -65 137
-189 286 -277 333 -13 6 -25 15 -28 19 -5 7 -87 46 -150 71 -22 9 -74 14 -140
14 -93 0 -109 -3 -137 -22 -17 -13 -36 -23 -43 -23 -6 0 -8 -4 -5 -10 3 -5 0
-10 -7 -10 -53 0 -64 -170 -14 -223 13 -14 26 -33 30 -42 3 -10 9 -15 13 -11
7 7 53 -57 53 -73 0 -6 5 -11 12 -11 6 0 8 -3 5 -7 -4 -3 9 -25 28 -49 19 -23
39 -53 45 -66 5 -12 14 -30 20 -38 5 -8 26 -58 46 -110 45 -118 59 -152 88
-215 13 -27 30 -63 37 -80 8 -16 16 -32 19 -35 3 -3 15 -25 28 -50 12 -25 40
-72 62 -105 62 -93 111 -201 125 -274 2 -13 7 -31 10 -41 3 -10 7 -27 9 -37 2
-11 12 -37 22 -59 9 -21 18 -41 19 -44 4 -16 100 -206 106 -210 3 -3 18 -28
32 -57 15 -28 31 -54 37 -58 6 -3 16 -21 24 -38 7 -18 27 -48 45 -67 17 -19
31 -38 31 -43 0 -8 51 -89 61 -97 4 -3 17 -25 30 -49 53 -98 69 -120 117 -169
18 -18 30 -37 26 -43 -3 -5 0 -8 7 -7 7 2 17 -6 23 -17 6 -11 24 -33 39 -49
72 -77 148 -322 193 -626 3 -19 9 -62 15 -95 16 -100 28 -274 39 -605 20 -532
21 -555 26 -570 3 -8 8 -64 10 -125 3 -60 9 -130 14 -155 5 -25 14 -166 21
-315 l11 -270 -36 -98 c-20 -54 -36 -107 -36 -117 0 -44 17 -14 49 88 19 59
39 113 44 120 6 8 7 56 3 125 -4 62 -7 119 -7 127 0 8 -4 74 -10 145 -49 691
-52 737 -79 1355 -7 176 -16 257 -49 445 -37 213 -74 367 -105 440 -8 16 -19
44 -25 60 -7 17 -26 46 -44 66 -81 92 -171 206 -189 240 -7 13 -29 49 -49 79
-176 268 -223 345 -292 480 -43 85 -87 187 -97 225 -50 183 -60 208 -157 367
-73 120 -173 318 -173 344 0 8 -13 41 -30 72 -16 31 -34 80 -40 109 -6 28 -18
57 -26 64 -13 11 -82 118 -109 170 -5 10 -13 19 -17 19 -5 0 -8 4 -8 8 0 5
-18 28 -40 51 -96 101 -79 221 38 272 48 21 186 27 197 9 3 -5 17 -10 31 -10
60 0 225 -93 295 -167 57 -60 116 -145 154 -224 19 -39 42 -77 50 -83 9 -6 26
-28 38 -48 97 -159 139 -230 162 -275 41 -75 111 -165 141 -181 67 -35 81 -34
116 11 18 23 64 76 103 118 85 91 145 174 145 198 0 10 7 38 15 61 8 23 15 54
15 69 0 14 9 62 20 106 21 83 24 168 11 245 -5 25 -24 126 -44 225 -25 127
-40 242 -51 390 -9 116 -21 257 -26 315 -5 58 -11 146 -12 195 -1 50 -11 131
-22 180 -14 67 -19 131 -20 251 l-1 161 37 55 c52 78 93 108 151 108 110 0
213 -112 262 -286 20 -68 22 -83 35 -224 5 -58 18 -139 30 -180 11 -41 29
-115 41 -165 24 -108 69 -281 109 -426 17 -61 36 -169 45 -255 25 -226 51
-306 98 -297 35 7 43 49 46 218 2 144 14 287 31 359 5 22 10 64 10 91 0 28 7
77 15 110 8 33 20 125 25 205 6 83 20 188 34 245 13 55 24 129 25 165 4 128
53 311 106 389 42 64 145 131 202 131 23 0 44 -4 47 -9 3 -4 18 -11 34 -14 59
-12 112 -120 115 -233 2 -76 -1 -103 -36 -279 -23 -120 -23 -121 -14 -569 5
-266 5 -516 -1 -612 -8 -145 -5 -215 12 -293 12 -55 73 -165 143 -260 2 -2 6
-2 9 1 4 5 -37 75 -73 123 -44 58 -72 168 -49 194 7 9 33 61 57 116 24 55 73
159 110 230 36 72 79 171 94 220 14 50 47 149 72 220 45 128 55 169 87 334 23
121 79 238 156 325 35 40 92 66 143 66 38 0 50 -6 86 -40 53 -52 62 -75 68
-185 5 -93 -9 -182 -55 -336 -11 -36 -27 -124 -36 -195 -9 -71 -39 -214 -65
-319 -27 -104 -52 -212 -56 -240 -11 -79 -33 -161 -77 -285 -67 -188 -88 -269
-88 -331 0 -95 18 -90 175 51 28 25 70 61 94 80 81 66 261 324 305 438 16 41
44 99 62 130 37 63 146 170 181 178 13 4 23 10 23 14 0 10 94 24 135 21 38 -3
71 -34 79 -72 6 -33 -14 -115 -71 -293 -49 -154 -169 -400 -246 -505 -36 -47
-70 -97 -77 -111 -7 -14 -28 -43 -47 -66 -18 -23 -33 -47 -33 -55 0 -24 -104
-191 -183 -297 -82 -108 -96 -136 -122 -252 -10 -41 -21 -79 -25 -85 -4 -5
-15 -53 -24 -105 -10 -52 -24 -122 -33 -155 -8 -33 -17 -71 -20 -85 -35 -199
-106 -397 -223 -630 -32 -63 -65 -139 -74 -168 -21 -72 -21 -268 -1 -397 33
-214 40 -287 50 -550 17 -459 55 -818 136 -1280 75 -431 82 -522 50 -644 l-16
-61 -940 2 -940 3 3 35 c2 26 0 31 -7 20 -6 -8 -11 -25 -11 -37 0 -17 -7 -23
-32 -26 -18 -2 449 -3 1037 -3 l1070 1 -3 80 c-4 137 -20 212 -63 301 -22 46
-43 84 -48 84 -15 0 -59 122 -66 180 -4 30 -9 64 -11 75 -6 32 -44 286 -49
330 -3 22 -9 63 -14 90 -5 28 -12 79 -16 115 -3 36 -8 83 -11 105 -2 22 -9 90
-15 150 -5 61 -12 124 -13 140 -2 17 -7 109 -10 205 -7 185 -24 485 -31 535
-2 17 -7 50 -11 75 -4 25 -8 56 -10 70 -2 14 -6 39 -10 55 -10 40 -9 282 0
320 4 17 11 39 16 50 4 11 14 36 21 55 7 19 21 47 31 63 11 15 17 27 14 27 -3
0 3 15 14 33 26 43 43 79 75 157 15 36 33 80 41 98 8 18 12 37 9 42 -3 4 -2
10 2 12 18 8 68 185 99 353 2 11 7 38 13 60 5 22 16 76 25 120 10 44 22 90 28
102 6 11 7 27 3 34 -5 8 -4 10 3 5 7 -4 12 0 13 11 2 58 37 173 55 180 8 3 11
9 8 14 -3 5 0 9 5 9 6 0 11 5 11 11 0 6 18 32 40 58 22 26 40 51 40 55 0 4 9
17 21 29 23 25 112 180 123 214 4 13 23 41 42 64 19 22 34 47 34 54 0 7 11 23
25 36 13 13 25 29 25 34 0 6 14 25 30 44 17 18 30 37 30 42 0 4 6 14 14 21 17
18 61 100 58 111 -1 4 3 7 9 7 5 0 7 5 4 10 -3 6 -1 10 4 10 6 0 11 4 11 10 0
5 12 35 26 67 15 32 26 60 25 62 -2 2 1 7 6 10 12 9 62 146 96 266 8 28 22 75
31 107 22 71 10 124 -35 162 -26 22 -40 26 -93 26 -61 0 -126 -15 -126 -29 0
-3 -14 -12 -31 -20 -25 -11 -70 -52 -143 -131 -24 -25 -82 -141 -105 -210 -13
-36 -26 -67 -31 -70 -8 -5 -80 -109 -80 -116 0 -2 -8 -13 -17 -23 -19 -21 -22
-24 -68 -86 -41 -56 -48 -64 -64 -78 -7 -7 -27 -24 -43 -39 -16 -16 -31 -28
-34 -28 -2 0 -13 -8 -23 -17 -61 -56 -160 -142 -149 -129 4 5 3 16 -1 25 -5 9
-5 38 0 66 5 28 11 60 13 71 2 12 9 31 15 42 6 11 11 30 11 41 0 10 3 21 8 23
8 4 48 111 69 188 8 30 21 77 29 104 8 26 14 57 14 68 0 27 26 147 50 228 21
72 46 181 55 235 1 6 3 12 4 15 1 3 4 23 6 45 10 102 32 212 55 282 10 32 21
72 25 88 17 88 25 145 25 188 0 58 -28 187 -41 187 -5 0 -9 6 -9 13 0 14 -41
53 -78 75 -35 20 -110 15 -151 -10 -40 -24 -111 -95 -103 -103 3 -3 0 -5 -6
-5 -6 0 -14 -9 -17 -20 -3 -11 -12 -26 -18 -32 -16 -17 -47 -85 -47 -103 0 -8
-4 -15 -9 -15 -9 0 -20 -44 -41 -160 -25 -141 -31 -164 -65 -246 -19 -46 -35
-93 -35 -104 0 -11 -4 -28 -9 -38 -5 -9 -22 -57 -37 -107 -16 -49 -34 -101
-41 -115 -7 -14 -13 -28 -13 -33 0 -4 -12 -26 -27 -50 -14 -23 -26 -43 -25
-44 6 -8 0 -23 -12 -35 -14 -15 -54 -97 -88 -182 -10 -27 -24 -58 -31 -70 -6
-12 -10 -24 -9 -28 1 -5 -2 -8 -6 -8 -4 0 -6 60 -3 133 5 158 5 441 1 867 -3
301 -2 320 20 420 32 144 34 333 3 400 -33 72 -73 109 -134 126 -79 20 -108
17 -164 -17z m965 -6875 c0 -6 11 -36 24 -65 20 -47 33 -120 41 -234 1 -16 5
-44 9 -62 l8 -31 -50 0 -51 -1 12 27 c6 15 16 30 22 34 5 4 7 8 3 8 -4 0 -3
12 3 28 17 42 18 72 3 72 -8 0 -11 -10 -9 -30 2 -18 0 -28 -5 -25 -6 3 -7 -1
-4 -9 3 -9 1 -16 -6 -16 -6 0 -8 -4 -5 -10 3 -5 1 -10 -4 -10 -6 0 -11 -10
-11 -22 0 -32 -14 -51 -34 -46 -15 3 -15 7 4 43 16 32 20 59 20 150 1 60 -4
126 -10 145 -13 45 -13 63 1 55 6 -4 1 11 -10 34 -12 22 -21 44 -21 48 1 12
70 -70 70 -83z"/>
<path d="M3986 333 c11 -62 25 -84 20 -33 -3 25 -5 51 -5 58 -1 6 -6 12 -11
12 -7 0 -8 -14 -4 -37z"/>
<path d="M3010 7106 c0 -22 25 -54 35 -44 7 6 -18 68 -27 68 -4 0 -8 -11 -8
-24z"/>
<path d="M1906 7075 c-3 -8 -1 -15 4 -15 6 0 10 7 10 15 0 8 -2 15 -4 15 -2 0
-6 -7 -10 -15z"/>
<path d="M3066 7035 c4 -8 11 -15 16 -15 6 0 5 6 -2 15 -7 8 -14 15 -16 15 -2
0 -1 -7 2 -15z"/>
<path d="M3286 7025 c-3 -8 -12 -15 -21 -15 -8 0 -15 -7 -15 -15 0 -8 6 -12
13 -9 16 7 50 54 39 54 -6 0 -12 -7 -16 -15z"/>
<path d="M2180 7013 c0 -15 19 -37 26 -31 3 4 -1 14 -10 23 -9 9 -16 13 -16 8z"/>
<path d="M1910 6999 c0 -26 32 -47 68 -45 18 2 36 7 40 11 4 4 -9 5 -29 2 -31
-5 -40 -1 -58 21 -14 18 -21 22 -21 11z"/>
<path d="M2080 6986 c0 -2 9 -6 20 -9 11 -3 18 -1 14 4 -5 9 -34 13 -34 5z"/>
<path d="M2008 6923 c7 -3 16 -2 19 1 4 3 -2 6 -13 5 -11 0 -14 -3 -6 -6z"/>
<path d="M3040 6742 c0 -16 71 -45 82 -34 7 7 -1 12 -24 17 -18 4 -39 12 -45
17 -9 7 -13 7 -13 0z"/>
<path d="M2145 6690 c-3 -5 -1 -10 4 -10 6 0 11 5 11 10 0 6 -2 10 -4 10 -3 0
-8 -4 -11 -10z"/>
<path d="M3145 6680 c-3 -5 3 -10 14 -10 12 0 21 5 21 10 0 6 -6 10 -14 10 -8
0 -18 -4 -21 -10z"/>
<path d="M2178 6673 c7 -3 16 -2 19 1 4 3 -2 6 -13 5 -11 0 -14 -3 -6 -6z"/>
<path d="M3900 6649 c7 -11 14 -19 16 -16 7 7 -7 37 -17 37 -6 0 -5 -9 1 -21z"/>
<path d="M4001 6464 c0 -11 3 -14 6 -6 3 7 2 16 -1 19 -3 4 -6 -2 -5 -13z"/>
<path d="M2198 6333 c7 -3 16 -2 19 1 4 3 -2 6 -13 5 -11 0 -14 -3 -6 -6z"/>
<path d="M2211 6216 c-10 -12 -8 -13 8 -9 12 3 21 9 21 14 0 14 -16 11 -29 -5z"/>
<path d="M2938 6193 c6 -2 18 -2 25 0 6 3 1 5 -13 5 -14 0 -19 -2 -12 -5z"/>
<path d="M2990 6190 c0 -5 9 -10 21 -10 11 0 17 5 14 10 -3 6 -13 10 -21 10
-8 0 -14 -4 -14 -10z"/>
<path d="M3081 6166 c2 -2 18 -6 34 -10 22 -5 26 -4 15 4 -14 9 -59 15 -49 6z"/>
<path d="M2294 6140 c-12 -5 -25 -13 -29 -19 -3 -6 -16 -11 -27 -11 -12 0 -18
-3 -14 -7 14 -14 38 -11 57 8 11 11 24 17 29 14 6 -4 10 1 10 9 0 9 -1 16 -2
15 -2 0 -13 -4 -24 -9z"/>
<path d="M3008 6109 c17 -5 32 -15 32 -21 0 -6 2 -9 5 -6 15 15 -10 38 -39 37
l-31 -1 33 -9z"/>
<path d="M2050 6070 c0 -12 17 -12 45 0 17 7 15 9 -12 9 -18 1 -33 -3 -33 -9z"/>
<path d="M2943 6063 c8 -13 67 -23 67 -11 0 4 -6 8 -12 8 -7 0 -24 3 -37 7
-16 4 -22 2 -18 -4z"/>
<path d="M2270 6050 c0 -5 5 -10 11 -10 5 0 7 5 4 10 -3 6 -8 10 -11 10 -2 0
-4 -4 -4 -10z"/>
<path d="M3030 6040 c8 -5 22 -9 30 -9 10 0 8 3 -5 9 -27 12 -43 12 -25 0z"/>
<path d="M2330 6026 c-6 -8 -28 -20 -48 -27 -20 -6 -41 -15 -46 -20 -6 -5 -19
-9 -30 -9 -14 0 -17 -3 -10 -10 12 -12 33 -5 122 38 51 26 66 42 38 42 -7 0
-19 -7 -26 -14z"/>
<path d="M2830 6033 c0 -17 167 -65 240 -68 l75 -4 -80 13 c-80 13 -151 32
-170 46 -16 12 -65 21 -65 13z"/>
<path d="M3109 6017 c6 -6 21 -5 38 1 28 11 28 11 -9 9 -23 0 -34 -5 -29 -10z"/>
<path d="M2077 5949 c7 -7 21 -7 44 -1 l34 10 -44 1 c-32 1 -42 -2 -34 -10z"/>
<path d="M2910 5950 c8 -5 24 -10 34 -10 26 0 18 6 -19 14 -22 5 -26 4 -15 -4z"/>
<path d="M2850 5920 c-13 -8 -13 -10 2 -10 9 0 20 5 23 10 8 13 -5 13 -25 0z"/>
<path d="M2980 5918 c33 -14 199 -22 227 -11 15 5 -3 8 -55 8 -42 0 -104 3
-137 7 -47 6 -54 5 -35 -4z"/>
<path d="M3740 5806 c0 -2 7 -6 15 -10 8 -3 15 -1 15 4 0 6 -7 10 -15 10 -8 0
-15 -2 -15 -4z"/>
<path d="M3790 5796 c0 -2 18 -13 40 -25 49 -25 53 -20 6 8 -32 20 -46 25 -46
17z"/>
<path d="M3750 5748 c16 -15 100 -51 106 -45 5 5 -65 43 -96 52 -21 7 -22 6
-10 -7z"/>
<path d="M4653 5680 c-11 -16 -10 -18 2 -14 8 4 15 12 15 20 0 19 -3 18 -17
-6z"/>
<path d="M3685 5665 c32 -27 45 -31 45 -15 0 9 -52 40 -67 40 -4 -1 6 -12 22
-25z"/>
<path d="M3780 5650 c0 -5 7 -10 15 -10 8 0 15 5 15 10 0 6 -7 10 -15 10 -8 0
-15 -4 -15 -10z"/>
<path d="M4675 5640 c-3 -5 -1 -10 4 -10 6 0 11 5 11 10 0 6 -2 10 -4 10 -3 0
-8 -4 -11 -10z"/>
<path d="M3830 5635 c0 -15 18 -40 24 -34 3 3 -1 14 -9 25 -8 10 -14 15 -15 9z"/>
<path d="M3670 5611 c0 -6 4 -11 8 -11 5 0 29 -15 53 -33 49 -38 163 -91 181
-85 7 3 -30 25 -82 51 -52 26 -110 56 -127 68 -18 11 -33 16 -33 10z"/>
<path d="M3760 5609 c0 -5 4 -9 9 -9 5 0 17 -3 27 -7 11 -4 15 -3 11 4 -9 14
-47 24 -47 12z"/>
<path d="M3875 5580 c3 -5 8 -10 11 -10 2 0 4 5 4 10 0 6 -5 10 -11 10 -5 0
-7 -4 -4 -10z"/>
<path d="M3931 5484 c0 -11 3 -14 6 -6 3 7 2 16 -1 19 -3 4 -6 -2 -5 -13z"/>
<path d="M3677 5479 c7 -7 15 -10 18 -7 3 3 -2 9 -12 12 -14 6 -15 5 -6 -5z"/>
<path d="M530 5446 c0 -2 7 -7 16 -10 8 -3 12 -2 9 4 -6 10 -25 14 -25 6z"/>
<path d="M578 5443 c6 -2 18 -2 25 0 6 3 1 5 -13 5 -14 0 -19 -2 -12 -5z"/>
<path d="M472 5396 c-15 -40 -11 -40 14 -1 13 19 16 32 9 32 -7 0 -17 -14 -23
-31z"/>
<path d="M750 5373 c0 -5 5 -15 10 -23 8 -12 10 -11 10 8 0 12 -4 22 -10 22
-5 0 -10 -3 -10 -7z"/>
<path d="M3770 5369 c0 -5 5 -7 10 -4 6 3 10 8 10 11 0 2 -4 4 -10 4 -5 0 -10
-5 -10 -11z"/>
<path d="M2950 5351 c0 -6 4 -13 10 -16 6 -3 7 1 4 9 -7 18 -14 21 -14 7z"/>
<path d="M2640 5331 c15 -28 107 -121 120 -121 5 0 10 -7 10 -15 0 -8 5 -15
10 -15 14 0 13 7 -6 35 -9 14 -22 25 -28 25 -7 0 -27 19 -44 43 -18 23 -41 48
-53 55 -19 12 -19 11 -9 -7z"/>
<path d="M777 5320 c-3 -11 -1 -20 4 -20 5 0 9 9 9 20 0 11 -2 20 -4 20 -2 0
-6 -9 -9 -20z"/>
<path d="M4596 5305 c4 -8 15 -15 27 -15 23 0 22 2 -10 19 -19 10 -22 9 -17
-4z"/>
<path d="M752 5268 c-14 -14 -16 -28 -3 -28 9 0 24 30 18 36 -2 2 -9 -2 -15
-8z"/>
<path d="M2057 5186 c-4 -9 -3 -15 2 -12 5 3 14 -8 20 -24 5 -17 16 -30 23
-30 8 0 9 3 3 8 -6 4 -17 22 -26 41 -12 28 -17 31 -22 17z"/>
<path d="M597 5128 c11 -13 27 -34 36 -48 l17 -24 0 22 c0 13 -11 34 -25 47
-31 32 -56 33 -28 3z"/>
<path d="M2440 5071 c0 -6 5 -13 10 -16 6 -3 10 1 10 9 0 9 -4 16 -10 16 -5 0
-10 -4 -10 -9z"/>
<path d="M4275 5060 c3 -5 14 -10 24 -10 10 0 30 -9 44 -20 33 -26 49 -26 18
0 -13 11 -19 20 -15 21 5 0 0 4 -11 9 -28 12 -67 12 -60 0z"/>
<path d="M4460 5046 c0 -2 7 -9 15 -16 13 -11 14 -10 9 4 -5 14 -24 23 -24 12z"/>
<path d="M2030 5025 c2 -26 39 -157 39 -138 1 29 -20 126 -31 138 -5 6 -8 6
-8 0z"/>
<path d="M2081 5014 c0 -11 3 -14 6 -6 3 7 2 16 -1 19 -3 4 -6 -2 -5 -13z"/>
<path d="M2215 5020 c3 -5 8 -10 11 -10 2 0 4 5 4 10 0 6 -5 10 -11 10 -5 0
-7 -4 -4 -10z"/>
<path d="M944 4982 c-12 -15 -27 -38 -34 -51 -9 -19 -14 -21 -21 -10 -6 10 -9
7 -9 -11 0 -27 -18 -58 -61 -103 -28 -29 -44 -67 -28 -67 5 0 9 4 9 9 0 6 17
30 38 55 60 73 80 101 93 130 7 14 15 26 19 26 4 0 12 11 18 25 15 33 3 31
-24 -3z"/>
<path d="M4257 4994 c-3 -4 5 -16 19 -26 33 -26 41 -18 11 10 -13 12 -26 19
-30 16z"/>
<path d="M4330 4990 c0 -5 5 -10 10 -10 6 0 10 5 10 10 0 6 -4 10 -10 10 -5 0
-10 -4 -10 -10z"/>
<path d="M4375 4990 c3 -5 8 -10 11 -10 2 0 4 5 4 10 0 6 -5 10 -11 10 -5 0
-7 -4 -4 -10z"/>
<path d="M735 4952 l-18 -27 24 20 c13 11 25 21 27 21 2 1 -1 5 -6 8 -6 3 -18
-7 -27 -22z"/>
<path d="M2151 4953 c7 -12 15 -20 18 -17 3 2 -3 12 -13 22 -17 16 -18 16 -5
-5z"/>
<path d="M4372 4943 c2 -10 10 -17 16 -15 7 1 12 -4 12 -11 0 -7 11 -23 25
-35 19 -17 25 -18 25 -7 0 8 -3 15 -7 15 -5 0 -19 16 -32 35 -25 37 -45 46
-39 18z"/>
<path d="M815 4907 c-4 -10 -5 -21 -1 -24 10 -10 18 4 13 24 -4 17 -4 17 -12
0z"/>
<path d="M4321 4863 c57 -62 69 -77 69 -87 0 -6 4 -5 9 2 8 13 -2 28 -61 90
-31 32 -47 27 -17 -5z"/>
<path d="M2316 4867 c3 -10 9 -15 12 -12 3 3 0 11 -7 18 -10 9 -11 8 -5 -6z"/>
<path d="M775 4858 c-10 -28 -14 -71 -6 -62 10 11 23 74 15 74 -2 0 -7 -6 -9
-12z"/>
<path d="M2956 4837 c3 -10 9 -15 12 -12 3 3 0 11 -7 18 -10 9 -11 8 -5 -6z"/>
<path d="M3860 4793 c0 -6 8 -21 18 -34 10 -13 38 -59 61 -102 24 -43 45 -76
47 -74 5 4 -36 90 -46 97 -4 3 -18 26 -30 52 -21 46 -50 81 -50 61z"/>
<path d="M890 4760 c-6 -12 -9 -24 -7 -27 3 -2 11 5 17 17 6 12 9 24 7 27 -3
2 -11 -5 -17 -17z"/>
<path d="M2160 4776 c0 -2 8 -10 18 -17 15 -13 16 -12 3 4 -13 16 -21 21 -21
13z"/>
<path d="M1952 4702 c0 -40 4 -69 9 -66 11 6 9 107 -2 125 -4 7 -7 -20 -7 -59z"/>
<path d="M3110 4730 c0 -5 5 -10 11 -10 5 0 7 5 4 10 -3 6 -8 10 -11 10 -2 0
-4 -4 -4 -10z"/>
<path d="M1391 4704 c0 -11 3 -14 6 -6 3 7 2 16 -1 19 -3 4 -6 -2 -5 -13z"/>
<path d="M1450 4571 c0 -5 7 -12 16 -15 14 -5 15 -4 4 9 -14 17 -20 19 -20 6z"/>
<path d="M3996 4557 c3 -10 9 -15 12 -12 3 3 0 11 -7 18 -10 9 -11 8 -5 -6z"/>
<path d="M2980 4549 c0 -5 5 -7 10 -4 6 3 10 8 10 11 0 2 -4 4 -10 4 -5 0 -10
-5 -10 -11z"/>
<path d="M1470 4530 c0 -5 5 -10 10 -10 6 0 10 5 10 10 0 6 -4 10 -10 10 -5 0
-10 -4 -10 -10z"/>
<path d="M1512 4498 c5 -15 28 -23 28 -10 0 5 -7 13 -16 16 -10 4 -14 1 -12
-6z"/>
<path d="M3116 4447 c3 -10 9 -15 12 -12 3 3 0 11 -7 18 -10 9 -11 8 -5 -6z"/>
<path d="M2890 4430 c0 -5 5 -10 10 -10 6 0 10 5 10 10 0 6 -4 10 -10 10 -5 0
-10 -4 -10 -10z"/>
<path d="M1618 4380 c-57 -124 -67 -149 -59 -154 8 -5 41 56 41 77 0 7 12 34
26 60 14 27 23 54 21 60 -2 7 -16 -13 -29 -43z"/>
<path d="M1530 4400 c-13 -8 -13 -10 2 -10 9 0 20 5 23 10 8 13 -5 13 -25 0z"/>
<path d="M2750 4400 c0 -5 5 -10 11 -10 5 0 7 5 4 10 -3 6 -8 10 -11 10 -2 0
-4 -4 -4 -10z"/>
<path d="M2675 4360 c10 -11 20 -20 23 -20 3 0 -3 9 -13 20 -10 11 -20 20 -23
20 -3 0 3 -9 13 -20z"/>
<path d="M3528 4313 c7 -3 16 -2 19 1 4 3 -2 6 -13 5 -11 0 -14 -3 -6 -6z"/>
<path d="M4010 4280 c0 -5 5 -10 11 -10 5 0 7 5 4 10 -3 6 -8 10 -11 10 -2 0
-4 -4 -4 -10z"/>
<path d="M2715 4240 c3 -5 8 -10 11 -10 2 0 4 5 4 10 0 6 -5 10 -11 10 -5 0
-7 -4 -4 -10z"/>
<path d="M2630 4204 c0 -6 7 -19 16 -30 14 -18 14 -18 3 6 -14 31 -19 36 -19
24z"/>
<path d="M1520 4176 c0 -7 -2 -29 -5 -47 -4 -28 -3 -26 10 11 18 54 17 50 5
50 -5 0 -10 -6 -10 -14z"/>
<path d="M2481 4183 c-1 -6 -4 -20 -7 -30 -5 -17 -5 -17 6 0 6 10 9 23 6 30
-3 9 -5 9 -5 0z"/>
<path d="M2710 4185 c0 -5 5 -17 10 -25 5 -8 10 -10 10 -5 0 6 -5 17 -10 25
-5 8 -10 11 -10 5z"/>
<path d="M2045 4159 c-4 -6 -5 -12 -2 -15 2 -3 7 2 10 11 7 17 1 20 -8 4z"/>
<path d="M2160 4095 c0 -5 5 -17 10 -25 5 -8 10 -10 10 -5 0 6 -5 17 -10 25
-5 8 -10 11 -10 5z"/>
<path d="M2677 4079 c7 -7 15 -10 18 -7 3 3 -2 9 -12 12 -14 6 -15 5 -6 -5z"/>
<path d="M2152 4010 c0 -14 2 -19 5 -12 2 6 2 18 0 25 -3 6 -5 1 -5 -13z"/>
<path d="M2001 3934 c0 -11 3 -14 6 -6 3 7 2 16 -1 19 -3 4 -6 -2 -5 -13z"/>
<path d="M1931 3854 c0 -11 3 -14 6 -6 3 7 2 16 -1 19 -3 4 -6 -2 -5 -13z"/>
<path d="M2232 3845 c0 -16 2 -22 5 -12 2 9 2 23 0 30 -3 6 -5 -1 -5 -18z"/>
<path d="M1446 3823 c-6 -14 -5 -15 5 -6 7 7 10 15 7 18 -3 3 -9 -2 -12 -12z"/>
<path d="M1497 3829 c7 -7 15 -10 18 -7 3 3 -2 9 -12 12 -14 6 -15 5 -6 -5z"/>
<path d="M1811 3824 c0 -11 3 -14 6 -6 3 7 2 16 -1 19 -3 4 -6 -2 -5 -13z"/>
<path d="M2081 3824 c0 -11 3 -14 6 -6 3 7 2 16 -1 19 -3 4 -6 -2 -5 -13z"/>
<path d="M1460 3805 c-7 -8 -9 -15 -6 -15 4 0 14 7 22 15 9 8 11 15 6 15 -5 0
-15 -7 -22 -15z"/>
<path d="M1550 3795 c-7 -8 -19 -15 -26 -15 -8 0 -14 -5 -14 -11 0 -6 9 -9 20
-6 18 5 20 0 20 -60 0 -47 3 -64 13 -60 8 2 12 29 13 85 1 83 -4 94 -26 67z"/>
<path d="M1811 3774 c0 -11 3 -14 6 -6 3 7 2 16 -1 19 -3 4 -6 -2 -5 -13z"/>
<path d="M2087 3771 c-4 -17 -3 -21 5 -13 5 5 8 16 6 23 -3 8 -7 3 -11 -10z"/>
<path d="M2122 3765 c0 -16 2 -22 5 -12 2 9 2 23 0 30 -3 6 -5 -1 -5 -18z"/>
<path d="M2221 3774 c0 -11 3 -14 6 -6 3 7 2 16 -1 19 -3 4 -6 -2 -5 -13z"/>
<path d="M2720 3710 c0 -5 5 -10 11 -10 5 0 7 5 4 10 -3 6 -8 10 -11 10 -2 0
-4 -4 -4 -10z"/>
<path d="M1871 3694 c0 -11 3 -14 6 -6 3 7 2 16 -1 19 -3 4 -6 -2 -5 -13z"/>
<path d="M2331 3664 c0 -11 3 -14 6 -6 3 7 2 16 -1 19 -3 4 -6 -2 -5 -13z"/>
<path d="M2196 3635 c4 -8 8 -15 10 -15 2 0 4 7 4 15 0 8 -4 15 -10 15 -5 0
-7 -7 -4 -15z"/>
<path d="M1530 3630 c0 -5 5 -10 11 -10 5 0 7 5 4 10 -3 6 -8 10 -11 10 -2 0
-4 -4 -4 -10z"/>
<path d="M2011 3614 c0 -11 3 -14 6 -6 3 7 2 16 -1 19 -3 4 -6 -2 -5 -13z"/>
<path d="M1864 3596 c-3 -8 -4 -29 -2 -48 3 -29 4 -27 8 15 5 48 3 58 -6 33z"/>
<path d="M2131 3424 c0 -11 3 -14 6 -6 3 7 2 16 -1 19 -3 4 -6 -2 -5 -13z"/>
<path d="M2402 3415 c0 -16 2 -22 5 -12 2 9 2 23 0 30 -3 6 -5 -1 -5 -18z"/>
<path d="M3541 3414 c-21 -27 -28 -84 -15 -119 11 -27 53 -38 80 -20 52 34 9
124 -45 95 -17 -8 -21 -8 -21 4 0 14 26 46 37 46 4 0 15 -7 25 -17 25 -22 36
-8 13 17 -25 27 -50 25 -74 -6z m57 -66 c18 -18 14 -46 -7 -58 -37 -19 -70 38
-33 59 22 13 26 13 40 -1z"/>
<path d="M1872 3370 c0 -14 2 -19 5 -12 2 6 2 18 0 25 -3 6 -5 1 -5 -13z"/>
<path d="M1760 3350 c-22 -22 -25 -36 -10 -45 6 -3 15 6 20 20 11 30 36 31 54
2 9 -15 6 -22 -14 -38 -93 -73 -95 -89 -10 -89 33 0 60 4 60 10 0 6 -24 10
-52 10 -53 1 -53 1 -29 18 13 9 37 29 53 44 26 24 28 30 17 50 -23 43 -57 50
-89 18z"/>
<path d="M1901 3344 c0 -11 3 -14 6 -6 3 7 2 16 -1 19 -3 4 -6 -2 -5 -13z"/>
<path d="M2788 3273 c7 -3 16 -2 19 1 4 3 -2 6 -13 5 -11 0 -14 -3 -6 -6z"/>
<path d="M3630 3220 c0 -5 5 -10 11 -10 5 0 7 5 4 10 -3 6 -8 10 -11 10 -2 0
-4 -4 -4 -10z"/>
<path d="M2145 2959 c-4 -6 -5 -12 -2 -15 2 -3 7 2 10 11 7 17 1 20 -8 4z"/>
<path d="M2022 2928 c-12 -12 -17 -38 -7 -38 3 0 14 9 25 20 11 11 26 17 35
14 22 -9 19 -45 -5 -51 -26 -7 -26 -23 0 -23 25 0 36 -25 20 -45 -18 -22 -51
-19 -57 5 -3 11 -11 20 -19 20 -23 0 0 -44 29 -54 19 -7 32 -5 51 8 29 19 36
63 11 72 -12 5 -13 10 -4 20 6 7 9 23 7 36 -2 18 -10 24 -38 26 -19 2 -41 -3
-48 -10z"/>
<path d="M2727 2890 c-48 -64 -48 -81 -2 -73 33 5 35 4 35 -21 0 -14 5 -26 10
-26 6 0 10 12 10 26 0 19 4 25 15 20 9 -3 15 0 15 9 0 9 -6 12 -15 9 -12 -5
-15 4 -15 50 0 31 -4 56 -8 56 -4 0 -24 -22 -45 -50z m33 -25 c0 -31 -3 -35
-25 -35 -14 0 -25 2 -25 5 0 7 42 65 47 65 2 0 3 -16 3 -35z"/>
<path d="M3318 2898 c-6 -51 -3 -56 23 -40 39 24 79 -24 47 -56 -17 -17 -47
-15 -54 3 -4 8 -13 15 -20 15 -12 0 -12 -4 -4 -20 26 -48 110 -27 110 28 0 37
-17 52 -56 52 -27 0 -31 3 -27 20 4 15 14 20 39 20 19 0 34 5 34 10 0 6 -20
10 -44 10 l-44 0 -4 -42z"/>
<path d="M2142 2895 c4 -4 3 -14 -3 -21 -7 -9 -6 -14 3 -20 7 -4 10 -4 6 1 -4
4 -3 14 3 21 7 9 6 14 -3 20 -7 4 -10 4 -6 -1z"/>
<path d="M2826 2868 c3 -5 10 -6 15 -3 13 9 11 12 -6 12 -8 0 -12 -4 -9 -9z"/>
<path d="M2116 2758 c3 -5 10 -6 15 -3 13 9 11 12 -6 12 -8 0 -12 -4 -9 -9z"/>
<path d="M2750 2750 c0 -5 5 -10 11 -10 5 0 7 5 4 10 -3 6 -8 10 -11 10 -2 0
-4 -4 -4 -10z"/>
<path d="M3384 2748 c-3 -4 -4 -8 -2 -9 25 -6 35 -5 35 5 0 14 -25 17 -33 4z"/>
<path d="M2093 2737 c0 -8 6 -14 14 -14 9 0 10 4 2 14 -6 7 -12 13 -14 13 -1
0 -2 -6 -2 -13z"/>
<path d="M3345 2730 c3 -5 8 -10 11 -10 2 0 4 5 4 10 0 6 -5 10 -11 10 -5 0
-7 -4 -4 -10z"/>
<path d="M2200 2689 c0 -5 5 -7 10 -4 6 3 10 8 10 11 0 2 -4 4 -10 4 -5 0 -10
-5 -10 -11z"/>
<path d="M2730 2465 c-11 -13 -10 -14 4 -9 9 3 16 10 16 15 0 13 -6 11 -20 -6z"/>
<path d="M2774 2439 c-27 -9 -37 -35 -24 -59 7 -13 7 -21 0 -25 -20 -12 -10
-54 16 -72 24 -15 29 -15 53 -2 27 15 40 54 23 71 -7 7 -7 18 0 34 18 39 -23
70 -68 53z m46 -39 c0 -10 -6 -20 -12 -23 -21 -7 -38 4 -38 23 0 10 6 20 13
23 20 7 37 -4 37 -23z m4 -62 c8 -14 7 -21 -6 -34 -30 -30 -75 9 -48 42 16 18
39 15 54 -8z"/>
<path d="M2070 2430 c0 -5 20 -10 44 -10 l45 0 -30 -56 c-28 -54 -39 -101 -20
-89 5 3 15 22 22 43 6 20 23 53 35 72 13 19 24 38 24 42 0 5 -27 8 -60 8 -33
0 -60 -4 -60 -10z"/>
<path d="M3319 2416 c-25 -53 25 -110 66 -76 18 15 21 -1 5 -31 -13 -24 -39
-25 -56 -2 -14 21 -27 13 -18 -10 7 -20 37 -30 62 -22 40 12 58 118 26 149
-25 25 -72 20 -85 -8z m76 -16 c8 -25 -10 -50 -35 -50 -21 0 -33 25 -25 51 9
26 52 25 60 -1z"/>
<path d="M2216 2404 c-4 -9 -4 -19 -1 -22 3 -3 5 0 5 7 0 7 4 9 10 6 6 -3 7 1
4 9 -8 20 -10 20 -18 0z"/>
<path d="M2220 2341 c0 -6 4 -13 10 -16 6 -3 7 1 4 9 -7 18 -14 21 -14 7z"/>
<path d="M2826 2252 c-3 -5 1 -9 9 -9 8 0 12 4 9 9 -3 4 -7 8 -9 8 -2 0 -6 -4
-9 -8z"/>
<path d="M3316 2252 c-3 -5 1 -9 9 -9 8 0 12 4 9 9 -3 4 -7 8 -9 8 -2 0 -6 -4
-9 -8z"/>
<path d="M2698 2153 c7 -3 16 -2 19 1 4 3 -2 6 -13 5 -11 0 -14 -3 -6 -6z"/>
<path d="M3098 1633 c7 -3 16 -2 19 1 4 3 -2 6 -13 5 -11 0 -14 -3 -6 -6z"/>
<path d="M3200 1194 c0 -8 5 -12 10 -9 6 4 8 11 5 16 -9 14 -15 11 -15 -7z"/>
<path d="M2320 528 c1 -14 24 -48 32 -48 3 0 8 9 11 20 3 11 2 18 -3 15 -4 -3
-10 2 -14 10 -7 18 -26 20 -26 3z"/>
<path d="M2027 138 c-2 -13 -12 -40 -21 -60 -19 -45 -15 -49 12 -10 23 31 38
92 24 92 -5 0 -12 -10 -15 -22z"/>
</g>
</svg>
